<?xml version="1.0" encoding="utf-8"?>
<!-- Generator: Adobe Illustrator 23.0.0, SVG Export Plug-In . SVG Version: 6.00 Build 0)  -->
<svg version="1.1" id="Layer_1" xmlns="http://www.w3.org/2000/svg" xmlns:xlink="http://www.w3.org/1999/xlink" x="0px" y="0px"
	 viewBox="0 0 60 60" style="enable-background:new 0 0 60 60;" xml:space="preserve">
<path d="M45.9,32.5c-0.3,2.5-1.2,4.8-2.5,6.9c-4.9,7.4-14.8,9.5-22.1,4.6C29.8,41,38.1,37.1,45.9,32.5z"/>
<path d="M18,35.5c0.2,0.5,0.8,0.8,1.3,0.6c0.5-0.2,0.8-0.8,0.5-1.3c-0.7-1.7-1-3.6-0.8-5.4c0.1-0.5-0.3-1-0.9-1.1
	c-0.5-0.1-1,0.3-1.1,0.9C16.8,31.3,17.1,33.5,18,35.5z M45.2,25.8C36.3,31.5,26.6,36,16.5,39.2c-0.8-1.2-1.3-2.4-1.8-3.8
	c-2.7-8.4,2-17.4,10.4-20.1C33.6,12.7,42.6,17.3,45.2,25.8z M18.7,26.3c0.5,0.2,1.1,0,1.3-0.5c0.3-0.5,0.6-1.1,0.9-1.6
	c0.3-0.5,0.2-1.1-0.2-1.4c-0.5-0.3-1.1-0.2-1.4,0.2c-0.4,0.6-0.8,1.2-1.1,1.9C18,25.5,18.2,26.1,18.7,26.3z"/>
<path d="M4.3,39.9L4.3,39.9l0.1-0.2l0-0.1l0.1-0.2l0.1-0.2l0.1-0.2L4.7,39l0.1-0.1l0.1-0.1L5,38.6l0.2-0.2l0.2-0.2L5.5,38l0.2-0.2
	l0.2-0.2L6,37.3l0.2-0.2l0.2-0.2l0.5-0.4l0.6-0.5l0.6-0.5l0.6-0.5l0.6-0.5l1.3-1l0.1-0.1c0.4-0.3,1.1-0.2,1.4,0.2
	c0.3,0.5,0.2,1.1-0.2,1.4l-0.9,0.6l-0.8,0.6l-0.7,0.6l-0.7,0.6l-0.3,0.3l-0.3,0.3L8,38.2l-0.2,0.2l-0.2,0.3l-0.2,0.3l-0.1,0.1
	L7,39.2l-0.1,0.1l-0.1,0.1l-0.1,0.2l-0.1,0.1l-0.1,0.1l-0.1,0.1L6.4,40l-0.1,0.1l-0.1,0.1l-0.1,0.1l0,0.1l0,0.1l0,0.1l0,0.1l0,0.1
	l0,0.1l0,0l0,0l0,0l0,0.1l0,0l0,0v0.1l0,0v0l0,0v0v0v0v0v0v0l0,0v0l0,0v0l0,0l0,0l0,0l0,0l0,0l0,0l0,0l0,0l0,0l0,0l0,0l0,0l0,0l0,0
	l0,0l0,0l0,0l0,0l0,0l0,0l0,0l0,0l0,0l0,0l0,0l0,0l0,0l0,0l0,0l0,0l0,0l0,0l0.1,0l0.1,0l0,0l0,0l0,0l0,0l0.1,0l0.1,0l0.1,0l0.1,0
	l0.1,0l0.1,0l0.1,0l0.1,0l0.1,0l0.1,0l0.2,0l0.2,0l0.2,0h0.2h0.3h0.3l0.4,0l0.4,0l0.4,0l0.4,0l0.4-0.1l0.4-0.1l0.9-0.2l0.9-0.2
	l1-0.2l1-0.2l1.2-0.3l1.2-0.4l1.6-0.5l1.6-0.5l1.8-0.7l1.8-0.7l4-1.6l3.9-1.8l3-1.4l3.8-2l2.2-1.2l1.9-1.1l1.9-1.2l2-1.3l0.9-0.6
	l0.9-0.6l0.7-0.6l0.7-0.6l0.7-0.6l0.3-0.3l0.3-0.3l0.2-0.2l0.2-0.2l0.2-0.2l0.2-0.2l0.2-0.2l0.2-0.2l0.1-0.2l0.1-0.2l0.1-0.1
	l0.1-0.1l0.1-0.1l0.1-0.1l0.1-0.1l0-0.1l0-0.1l0-0.1l0-0.1l0-0.1l0-0.1l0,0l0,0l0-0.1l0,0l0-0.1l0,0l0-0.1l0,0l0,0v0l0,0v0l0,0v0v0
	v0v0v0l0,0v0v0l0,0v0l0,0l0,0v0l0,0l0,0l0,0l0,0l0,0l0,0l0,0l0,0l0,0l0,0l0,0l0,0l0,0l0,0l0,0l0,0l0,0l0,0l0,0l0,0l0,0l0,0l0,0l0,0
	l0,0l0,0l0,0l0,0l0,0l0,0l0,0l-0.1,0l-0.1,0l-0.1,0l0,0l0,0l-0.1,0l-0.1,0l-0.1,0l-0.1,0l-0.1,0l-0.1,0l-0.1,0l-0.1,0l-0.1,0l-0.1,0
	l-0.1,0l-0.2,0h-0.2h-0.2h-0.2l-0.3,0l-0.3,0l-0.4,0l-0.3,0L49,18.7l-0.4,0.1l-0.9,0.1l-0.9,0.2l-0.9,0.2l-0.9,0.2
	c-0.5,0.1-1.1-0.2-1.2-0.7c-0.1-0.5,0.2-1.1,0.7-1.2l0.1,0l1.6-0.4l0.8-0.2l0.8-0.1l0.8-0.1l0.8-0.1l0.6-0.1l0.3,0l0.3,0l0.3,0h0.3
	h0.3h0.3l0.3,0l0.2,0l0.2,0l0.2,0l0.2,0l0.1,0l0.1,0l0.1,0l0.1,0l0.1,0l0.1,0l0.1,0l0.1,0l0.1,0l0.1,0l0.1,0.1l0.1,0.1l0.1,0.1
	l0.1,0.1l0,0l0.1,0l0,0l0.1,0l0,0l0.1,0l0.1,0l0,0l0,0l0,0l0,0l0.1,0l0,0l0.1,0l0,0l0,0l0,0.1l0,0l0.1,0.1l0,0l0,0.1l0,0.1l0,0.1
	l0,0.1l0,0.1l0,0.1l0,0.1l0,0.1l0,0.1l0,0.1l0,0.1l0,0.1l0,0.1l0,0.1l0,0.1l0,0.1l0,0.1l0,0.1l0,0.1l0,0.1l0,0.1l0,0.1l0,0.1v0.1
	l0,0.1v0.1v0.1V20v0.1l0,0.1v0.1l0,0.1l0,0.1l0,0.1l0,0.1l0,0.1l0,0.1l0,0.1l0,0.1l0,0.1l0,0.1l0,0.1l0,0.1l0,0.1l0,0.1l0,0.1l0,0.1
	l-0.1,0.2l-0.1,0.1L55.4,22l-0.1,0.1l-0.1,0.1l-0.1,0.1L55,22.6l-0.1,0.2L54.7,23l-0.2,0.2l-0.2,0.2l-0.2,0.2L54,23.9l-0.2,0.2
	l-0.2,0.2l-0.5,0.5l-0.6,0.5l-0.6,0.5l-0.6,0.5l-0.6,0.5l-1.3,1l-1.5,1l-2.2,1.4L44,31.3l-1.7,1l-1.8,1l-1.8,1l-3.7,1.9L33.1,37
	l-3.7,1.7l-3.8,1.6L23.7,41l-1.9,0.7l-1.9,0.7l-1.3,0.4l-1.3,0.4l-1.7,0.5L13.9,44l-0.8,0.2l-0.8,0.1l-0.8,0.1l-0.8,0.1l-0.6,0.1
	l-0.3,0l-0.3,0l-0.3,0H8.9H8.6H8.4l-0.3,0l-0.2,0l-0.2,0l-0.2,0l-0.2,0l-0.1,0l-0.1,0l-0.1,0l-0.1,0l-0.1,0l-0.1,0l-0.1,0l-0.1,0
	l-0.1,0L6,44.2l-0.1-0.1l-0.1-0.1L5.7,44L5.6,44l-0.1,0l-0.1,0l-0.1,0l-0.1,0l-0.1,0l-0.1,0l-0.1,0l-0.1,0l-0.1,0l-0.1,0l0,0l-0.1,0
	l-0.1-0.1l-0.1,0l-0.1,0l-0.1,0l0-0.1l-0.1-0.1l0-0.1l0,0l0-0.1l0-0.1l0-0.1l0-0.1l0-0.1l0-0.1l0-0.1l0-0.1l0-0.1l0-0.1l0-0.1l0-0.1
	l0-0.1l0-0.1l0-0.1l0-0.1l0-0.1l0-0.1l0-0.1l0-0.1l0-0.1v-0.1l0-0.1l0-0.1v-0.1v-0.1v-0.1v-0.1v-0.1L4,41V41l0-0.1l0-0.1l0-0.1
	l0-0.1l0-0.1l0-0.1l0-0.1l0-0.1l0-0.1l0-0.1l0-0.1L4.3,39.9L4.3,39.9z"/>
</svg>
